<svg xmlns="http://www.w3.org/2000/svg" viewBox="0 36 364 120" preserveAspectRatio="xMidYMid meet">
  <g fill="currentColor" fill-rule="nonzero">
    <path d="M 303.707031 46.371094 C 276.097656 46.371094 253.671875 69.101562 253.671875 97.070312 C 253.671875 125.035156 276.148438 147.765625 303.707031 147.765625 C 331.269531 147.765625 353.746094 125.035156 353.746094 97.070312 C 353.746094 69.101562 331.320312 46.371094 303.707031 46.371094 Z M 303.707031 137.648438 C 281.742188 137.648438 263.84375 119.441406 263.84375 97.121094 C 263.84375 74.796875 281.742188 56.589844 303.707031 56.589844 C 325.675781 56.589844 343.574219 74.796875 343.574219 97.121094 C 343.574219 119.441406 325.675781 137.648438 303.707031 137.648438 Z"/>
    <g transform="translate(287, 64)"><path d="M 6.011719 0.390625 L 32.433594 20.835938 L 26.777344 28.140625 L 0.359375 7.695312 Z"/></g>
    <g transform="translate(246, 114)"><path d="M 0.9375 32.050781 L 32.164062 0.824219 L 38.695312 7.355469 L 7.46875 38.582031 Z"/></g>
    <g transform="translate(335, 38)"><path d="M 0.21875 19.859375 L 19.199219 0.878906 L 25.730469 7.410156 L 6.75 26.386719 Z"/></g>
    <g transform="translate(287, 64)"><path d="M 0.523438 20.683594 L 27.058594 0.386719 L 32.667969 7.726562 L 6.132812 28.019531 Z"/></g>
    <g transform="translate(0.481288, 144.658264)"><path d="M 31.796875 -18.015625 L 62.359375 -18.015625 L 62.359375 0 L 8.46875 0 L 8.46875 -95.796875 L 31.796875 -95.796875 Z"/></g>
    <g transform="translate(65.571566, 144.658264)"><path d="M 31.390625 -95.796875 L 31.390625 -38.484375 C 31.390625 -32.753906 32.796875 -28.34375 35.609375 -25.25 C 38.429688 -22.15625 42.570312 -20.609375 48.03125 -20.609375 C 53.488281 -20.609375 57.671875 -22.15625 60.578125 -25.25 C 63.492188 -28.34375 64.953125 -32.753906 64.953125 -38.484375 L 64.953125 -95.796875 L 88.296875 -95.796875 L 88.296875 -38.625 C 88.296875 -30.070312 86.472656 -22.835938 82.828125 -16.921875 C 79.191406 -11.003906 74.300781 -6.546875 68.15625 -3.546875 C 62.019531 -0.546875 55.175781 0.953125 47.625 0.953125 C 40.070312 0.953125 33.316406 -0.523438 27.359375 -3.484375 C 21.398438 -6.441406 16.691406 -10.898438 13.234375 -16.859375 C 9.773438 -22.816406 8.046875 -30.070312 8.046875 -38.625 L 8.046875 -95.796875 Z"/></g>
    <g transform="translate(161.774182, 144.658264)"><path d="M 81.46875 -64.953125 C 81.46875 -59.410156 80.191406 -54.335938 77.640625 -49.734375 C 75.097656 -45.140625 71.1875 -41.429688 65.90625 -38.609375 C 60.632812 -35.796875 54.085938 -34.390625 46.265625 -34.390625 L 31.796875 -34.390625 L 31.796875 0 L 8.46875 0 L 8.46875 -95.796875 L 46.265625 -95.796875 C 53.898438 -95.796875 60.359375 -94.476562 65.640625 -91.84375 C 70.921875 -89.207031 74.878906 -85.566406 77.515625 -80.921875 C 80.148438 -76.285156 81.46875 -70.960938 81.46875 -64.953125 Z M 44.484375 -52.953125 C 48.941406 -52.953125 52.257812 -54 54.4375 -56.09375 C 56.625 -58.1875 57.71875 -61.140625 57.71875 -64.953125 C 57.71875 -68.773438 56.625 -71.734375 54.4375 -73.828125 C 52.257812 -75.921875 48.941406 -76.96875 44.484375 -76.96875 L 31.796875 -76.96875 L 31.796875 -52.953125 Z"/></g>
  </g>
</svg>